<?xml version="1.0" standalone="no"?>
<!DOCTYPE svg PUBLIC "-//W3C//DTD SVG 20010904//EN"
 "http://www.w3.org/TR/2001/REC-SVG-20010904/DTD/svg10.dtd">
<svg version="1.0" xmlns="http://www.w3.org/2000/svg"
 width="900.000000pt" height="900.000000pt" viewBox="0 0 900.000000 900.000000"
 preserveAspectRatio="xMidYMid meet">
<metadata>
Created by potrace 1.10, written by Peter Selinger 2001-2011
</metadata>
<g transform="translate(0.000000,900.000000) scale(0.100000,-0.100000)"
fill="#000000" stroke="none">
<path d="M5165 6150 c-47 -8 -111 -17 -405 -55 -238 -31 -265 -36 -287 -53
-62 -49 -231 -209 -232 -219 -1 -10 35 -13 147 -14 116 0 156 -4 190 -18 24
-9 43 -21 43 -27 0 -5 -20 -12 -43 -15 -69 -11 -171 -64 -220 -117 -57 -61
-77 -124 -57 -185 22 -69 122 -191 319 -387 185 -186 226 -225 394 -375 50
-44 102 -92 116 -107 l27 -28 175 0 175 0 355 363 c454 463 519 527 528 527 4
0 47 -44 96 -97 49 -54 104 -114 124 -134 19 -19 59 -62 89 -95 30 -32 86 -93
125 -134 158 -168 325 -347 360 -387 38 -42 40 -43 102 -43 35 0 64 4 64 9 0
5 -17 26 -37 48 -21 21 -90 94 -153 162 -63 68 -120 129 -125 135 -6 6 -40 43
-75 81 -35 39 -116 126 -180 195 -64 69 -174 187 -245 263 -71 76 -135 142
-144 146 -9 5 -38 5 -66 0 -27 -5 -72 -11 -100 -14 -27 -4 -90 -13 -140 -20
-241 -38 -235 -38 -263 -13 -14 13 -59 64 -100 113 -41 50 -78 92 -82 95 -3 3
-32 37 -65 75 -32 39 -84 99 -115 135 -31 36 -81 94 -112 130 -60 72 -76 77
-183 60z m188 -192 c61 -69 111 -129 172 -203 22 -27 66 -78 98 -114 78 -88
99 -118 88 -125 -14 -9 -149 -26 -273 -35 l-106 -7 -129 -104 c-129 -104 -167
-136 -278 -229 -33 -28 -69 -51 -80 -50 -26 0 -241 212 -231 228 4 6 27 11 52
11 50 0 41 -8 191 176 54 67 145 179 203 250 57 71 129 159 158 197 30 37 60
67 67 67 7 0 38 -28 68 -62z"/>
<path d="M5240 5776 c-20 -26 -8 -61 22 -64 35 -4 60 37 38 63 -16 19 -44 19
-60 1z"/>
<path d="M5358 5779 c-38 -22 -11 -74 34 -67 19 2 23 9 23 38 0 28 -4 36 -20
37 -11 2 -28 -2 -37 -8z"/>
<path d="M5247 5672 c-23 -25 -21 -59 2 -72 43 -22 75 22 47 65 -20 30 -28 31
-49 7z"/>
<path d="M5367 5672 c-36 -22 -34 -63 3 -72 38 -10 50 -1 50 35 0 45 -18 58
-53 37z"/>
<path d="M2690 5759 c-61 -70 -205 -230 -245 -273 -18 -19 -117 -129 -190
-211 -38 -43 -74 -83 -80 -89 -5 -6 -43 -48 -84 -94 -40 -45 -77 -82 -82 -82
-5 0 -9 51 -9 113 0 75 -4 117 -12 125 -8 8 -46 12 -105 12 -81 0 -94 -2 -103
-19 -6 -12 -10 -115 -10 -265 l0 -245 -66 -76 c-36 -41 -70 -75 -75 -75 -15 0
-10 -27 7 -34 9 -3 44 -6 78 -6 l63 0 54 58 c30 31 81 88 114 126 60 70 146
167 351 397 60 68 144 162 184 209 41 47 77 87 80 90 11 10 215 244 222 254
13 19 46 -9 148 -129 56 -66 112 -131 123 -145 135 -157 280 -326 312 -365 22
-27 45 -53 50 -59 15 -16 118 -136 146 -170 13 -16 31 -36 40 -45 8 -9 37 -43
64 -76 27 -33 65 -77 84 -97 l35 -38 512 0 c282 0 515 3 517 8 3 4 -23 31 -57
61 -72 63 -237 215 -275 252 -86 84 -313 286 -351 312 -39 28 -53 31 -116 32
-61 0 -76 -4 -112 -28 -23 -15 -42 -33 -42 -41 0 -21 -54 -90 -99 -125 -40
-32 -42 -32 -66 -17 -45 29 -160 138 -160 151 0 7 20 36 44 64 38 44 49 51 81
51 27 0 50 10 84 35 52 41 76 80 76 126 0 34 13 49 184 206 37 34 65 67 61 73
-3 5 -20 10 -38 10 -17 0 -87 7 -156 15 -70 8 -196 21 -281 30 -85 8 -213 22
-285 30 -71 8 -175 20 -230 26 -55 6 -148 13 -206 16 l-106 5 -73 -83z"/>
<path d="M2780 5563 c0 -5 -17 -26 -38 -48 -20 -22 -50 -56 -66 -75 -32 -39
-99 -115 -296 -335 -74 -82 -166 -186 -205 -230 -38 -44 -72 -82 -75 -85 -3
-3 -50 -56 -104 -118 -77 -89 -96 -116 -85 -123 8 -5 21 -9 31 -9 14 0 123
112 242 250 39 44 189 211 213 235 7 7 43 48 80 92 37 43 86 98 108 122 59 64
74 81 135 151 30 35 62 71 70 80 56 60 55 58 35 80 -18 20 -45 27 -45 13z"/>
<path d="M6357 5313 c-19 -19 3 -53 105 -160 62 -65 117 -123 123 -129 5 -6
82 -87 170 -180 89 -93 187 -197 219 -231 44 -47 66 -63 86 -63 41 0 42 10 7
44 -35 35 -258 272 -289 308 -10 12 -47 52 -80 88 -318 338 -322 342 -341 323z"/>
<path d="M2562 4961 c-9 -5 -12 -31 -10 -92 l3 -84 70 -3 c116 -5 115 -6 115
92 0 67 -3 85 -16 90 -23 9 -147 7 -162 -3z"/>
<path d="M2812 4958 c-12 -12 -17 -134 -6 -162 5 -13 22 -16 83 -16 47 0 82 5
89 12 7 7 12 41 12 83 0 42 -5 76 -12 83 -16 16 -150 16 -166 0z"/>
<path d="M6217 4878 c-13 -7 -17 -23 -17 -61 0 -74 6 -79 81 -75 l64 3 3 68 3
67 -43 1 c-24 0 -50 2 -59 4 -8 1 -23 -1 -32 -7z"/>
<path d="M6470 4881 l-55 -6 -3 -44 c-2 -25 -1 -55 3 -68 5 -23 9 -24 73 -21
l67 3 3 64 c2 45 -1 67 -10 72 -7 5 -15 8 -18 7 -3 -1 -30 -4 -60 -7z"/>
<path d="M2563 4723 c-9 -3 -13 -30 -13 -84 0 -95 2 -96 112 -89 l73 5 3 79
c2 57 -1 82 -10 87 -14 9 -145 11 -165 2z"/>
<path d="M2811 4716 c-7 -9 -11 -42 -9 -88 l3 -73 90 0 90 0 3 73 c2 46 -2 79
-9 88 -8 10 -34 14 -84 14 -50 0 -76 -4 -84 -14z"/>
<path d="M6205 4667 c-4 -13 -5 -43 -3 -68 l3 -44 73 -3 73 -3 -3 68 -3 68
-67 3 c-64 3 -68 2 -73 -21z"/>
<path d="M6415 4667 c-4 -13 -5 -43 -3 -68 l3 -44 70 0 70 0 0 65 0 65 -67 3
c-64 3 -68 2 -73 -21z"/>
<path d="M1662 4268 c-26 -26 0 -58 46 -58 10 0 27 -8 36 -19 15 -17 17 -49
14 -329 -2 -171 -6 -314 -10 -318 -4 -4 -24 -10 -44 -13 -47 -8 -67 -36 -40
-57 16 -11 57 -14 190 -13 272 1 339 13 425 76 53 40 85 81 119 153 24 51 26
65 26 190 0 124 -3 139 -26 190 -29 62 -90 129 -140 155 -83 43 -164 55 -378
55 -147 0 -209 -3 -218 -12z m421 -79 c54 -15 110 -74 132 -140 49 -145 21
-353 -60 -447 -41 -49 -154 -84 -195 -62 -19 10 -20 23 -20 320 0 169 3 315 6
324 7 19 78 22 137 5z"/>
<path d="M2770 4265 c-18 -22 -6 -42 32 -50 69 -15 68 -8 68 -307 0 -244 2
-273 19 -311 37 -81 95 -118 214 -137 130 -21 266 13 313 78 50 68 54 95 54
377 0 259 0 265 22 285 12 11 34 20 50 20 23 0 28 4 28 24 0 13 -7 27 -16 30
-9 3 -67 6 -129 6 -130 0 -145 -4 -145 -35 0 -18 7 -24 40 -29 24 -4 43 -14
50 -25 6 -12 10 -121 10 -284 0 -257 -1 -265 -22 -297 -54 -78 -144 -102 -227
-58 -78 41 -81 53 -81 358 0 146 4 270 8 276 11 16 48 34 71 34 26 0 30 45 5
54 -9 3 -91 6 -184 6 -136 0 -170 -3 -180 -15z"/>
<path d="M3883 4273 c-7 -2 -13 -16 -13 -29 0 -20 5 -24 29 -24 16 0 39 -9 52
-19 l24 -19 3 -302 c3 -342 3 -342 -67 -354 -35 -5 -41 -10 -41 -31 l0 -25
146 0 145 0 -3 28 c-3 23 -8 27 -41 30 -30 3 -40 9 -48 29 -14 36 -7 485 7
490 10 3 41 -36 189 -247 257 -365 227 -332 289 -328 l51 3 2 355 c3 348 3
355 24 373 12 9 32 17 45 17 29 0 41 24 24 45 -10 12 -38 15 -134 15 -66 0
-127 -4 -134 -9 -24 -15 -9 -45 25 -52 64 -13 63 -9 63 -255 0 -122 -4 -225
-9 -228 -5 -3 -26 20 -47 52 -22 31 -65 92 -96 134 -32 42 -58 80 -58 83 0 4
-19 32 -43 63 -23 31 -59 82 -79 112 -69 103 -64 100 -186 99 -59 0 -113 -3
-119 -6z"/>
<path d="M5025 4266 c-26 -19 -13 -46 23 -46 17 0 37 -9 50 -23 22 -23 22 -29
22 -328 0 -168 -4 -311 -10 -319 -5 -8 -28 -19 -52 -25 -33 -8 -43 -15 -43
-30 0 -19 8 -20 143 -23 l142 -3 0 26 c0 14 -3 25 -7 26 -43 4 -68 10 -77 19
-7 7 -12 91 -14 242 -3 227 0 278 17 278 5 0 37 -41 72 -92 35 -50 78 -110 94
-134 17 -23 61 -86 99 -140 39 -55 74 -100 78 -102 4 -2 8 -8 8 -13 0 -5 17
-32 37 -60 38 -49 38 -50 88 -47 l50 3 2 355 c3 348 3 355 24 373 12 9 32 17
45 17 27 0 43 25 27 41 -6 6 -67 10 -138 11 -97 0 -129 -3 -136 -13 -14 -23
-5 -34 35 -40 21 -3 42 -12 47 -20 12 -18 12 -456 0 -463 -5 -3 -23 15 -39 42
-30 46 -101 145 -122 169 -5 7 -10 15 -10 18 0 3 -21 35 -47 70 -27 35 -75
102 -108 149 -68 95 -69 96 -199 96 -53 0 -89 -5 -101 -14z"/>
<path d="M6900 4261 c-87 -36 -150 -120 -150 -200 0 -102 54 -173 176 -230 38
-18 85 -41 104 -50 123 -59 155 -138 86 -217 -33 -39 -34 -39 -106 -39 l-72 0
-39 45 c-21 25 -39 55 -39 67 0 69 -37 91 -90 53 -47 -33 -51 -112 -10 -160
45 -52 86 -64 220 -64 107 0 132 3 170 22 107 50 159 150 137 261 -15 77 -62
120 -212 192 -124 59 -169 95 -181 145 -15 61 40 134 103 134 64 0 106 -41
136 -132 10 -30 64 -23 99 12 26 26 30 36 25 66 -7 45 -20 60 -71 87 -59 30
-222 35 -286 8z"/>
<path d="M6223 4253 c-18 -12 -23 -25 -23 -59 0 -37 5 -48 35 -76 48 -43 44
-73 -12 -111 -55 -36 -61 -72 -10 -62 94 21 179 141 162 231 -8 47 -58 94 -98
93 -18 0 -42 -7 -54 -16z"/>
<path d="M2630 3235 c0 -17 45 -63 56 -58 24 9 16 43 -12 53 -28 11 -44 13
-44 5z"/>
<path d="M3229 3233 c0 -5 0 -66 1 -136 1 -87 -2 -133 -11 -143 -10 -12 -6
-14 25 -14 35 0 47 12 26 25 -13 8 -13 172 -1 180 5 3 39 -40 76 -95 36 -54
70 -102 75 -105 17 -11 22 18 21 125 -1 74 2 116 11 130 11 17 11 22 -2 30
-28 18 -35 4 -32 -67 4 -71 -3 -113 -17 -113 -8 0 -69 89 -82 120 -19 42 -87
90 -90 63z"/>
<path d="M3985 3233 c-6 -2 -9 -51 -6 -129 3 -109 1 -128 -15 -145 -17 -19
-16 -19 35 -19 52 0 52 0 37 22 -19 26 -23 232 -6 243 20 13 -19 37 -45 28z"/>
<path d="M2533 3211 c-12 -10 -29 -41 -39 -70 -16 -49 -16 -54 3 -109 16 -47
26 -61 58 -79 50 -28 71 -28 114 -2 25 15 31 23 23 31 -9 9 -16 7 -30 -5 -26
-24 -52 -21 -87 10 -27 24 -30 33 -33 99 -4 71 -3 74 27 104 17 18 31 33 31
36 0 12 -48 1 -67 -15z"/>
<path d="M2856 3200 c-42 -50 -47 -152 -10 -207 15 -24 83 -63 109 -63 28 0
87 39 106 70 43 69 13 211 -47 226 -34 9 -43 -4 -18 -24 32 -25 49 -110 33
-159 -21 -66 -37 -83 -78 -83 -54 0 -81 44 -81 134 0 62 3 70 30 98 36 36 37
38 6 38 -15 0 -34 -12 -50 -30z"/>
<path d="M3607 3201 c-9 -16 -17 -34 -17 -39 0 -19 52 -72 87 -88 49 -24 67
-54 52 -88 -18 -38 -68 -36 -98 4 -12 17 -26 28 -32 25 -17 -11 -9 -42 14 -57
42 -28 64 -30 111 -8 45 20 46 22 46 65 0 38 -4 47 -33 69 -19 15 -38 26 -44
26 -5 0 -20 11 -33 25 -22 23 -22 35 -5 78 13 30 -29 20 -48 -12z"/>
<path d="M3710 3219 c0 -12 29 -38 43 -39 5 0 7 10 5 23 -3 23 -48 39 -48 16z"/>
<path d="M3890 3210 c0 -23 10 -26 28 -8 18 18 15 28 -8 28 -13 0 -20 -7 -20
-20z"/>
<path d="M4070 3222 c0 -5 12 -17 26 -27 25 -16 26 -16 22 7 -2 15 -11 24 -25
26 -13 2 -23 -1 -23 -6z"/>
<path d="M4248 3100 c3 -92 0 -135 -8 -146 -11 -12 -5 -14 35 -14 41 0 46 2
39 18 -4 9 -8 74 -9 145 l0 127 -30 0 -30 0 3 -130z"/>
<path d="M4360 3221 c0 -5 7 -14 15 -21 26 -22 19 -72 -15 -100 l-30 -25 37
-57 c38 -60 83 -92 83 -60 0 9 -14 35 -30 56 -35 46 -38 70 -10 93 26 23 27
84 2 106 -20 18 -52 23 -52 8z"/>
<path d="M4585 3221 c-3 -5 -1 -12 5 -16 5 -3 10 -44 10 -89 0 -128 6 -145 54
-167 40 -17 86 -16 86 2 0 5 -15 9 -32 9 -24 1 -38 8 -52 26 -16 22 -18 40
-14 135 l3 109 -27 0 c-15 0 -29 -4 -33 -9z"/>
<path d="M4766 3221 c-8 -13 21 -34 39 -27 25 9 18 36 -9 36 -14 0 -27 -4 -30
-9z"/>
<path d="M4993 3206 c-35 -37 -50 -106 -35 -163 15 -56 24 -68 65 -88 34 -17
97 -20 97 -5 0 6 7 10 15 10 8 0 15 5 15 10 0 6 -7 10 -15 10 -8 0 -15 -4 -15
-10 0 -5 -15 -10 -34 -10 -26 0 -41 7 -60 31 -23 27 -26 39 -26 105 0 67 3 77
25 98 24 22 24 36 1 36 -6 0 -21 -11 -33 -24z"/>
<path d="M5110 3216 c0 -7 7 -19 15 -26 19 -16 41 1 32 24 -8 20 -47 21 -47 2z"/>
<path d="M5270 3211 c0 -28 17 -35 29 -12 15 27 14 31 -9 31 -13 0 -20 -7 -20
-19z"/>
<path d="M5359 3223 c0 -5 0 -63 1 -131 1 -83 -2 -128 -10 -138 -11 -12 -5
-14 34 -14 l46 0 -16 25 c-13 20 -15 46 -13 145 4 119 4 120 -18 120 -13 0
-23 -3 -24 -7z"/>
<path d="M5457 3223 c-3 -4 6 -16 20 -27 25 -18 25 -18 21 5 -3 23 -31 38 -41
22z"/>
<path d="M5638 3116 c3 -68 0 -127 -6 -145 l-11 -31 39 0 39 0 -11 31 c-6 18
-9 77 -6 145 l4 114 -26 0 -26 0 4 -114z"/>
<path d="M5871 3193 c-28 -33 -31 -45 -31 -102 0 -53 4 -70 26 -98 14 -18 32
-33 40 -33 18 0 18 -2 -6 45 -11 22 -20 59 -20 82 0 48 23 113 39 113 6 0 11
7 11 15 0 26 -28 16 -59 -22z"/>
<path d="M6006 3222 c-2 -4 6 -18 20 -31 21 -21 24 -32 24 -101 0 -57 -4 -81
-15 -90 -17 -14 -20 -40 -4 -40 19 0 48 44 55 85 8 44 8 44 -1 97 -8 51 -63
106 -79 80z"/>
<path d="M6240 3222 c0 -22 35 -75 51 -79 10 -3 43 -45 74 -93 55 -86 82 -112
90 -87 2 6 5 69 7 140 4 119 3 127 -15 127 -15 0 -18 -5 -13 -23 10 -40 9
-158 -1 -168 -7 -7 -32 23 -77 90 -55 82 -72 101 -92 101 -13 0 -24 -4 -24 -8z"/>
<path d="M6838 3033 c23 -2 61 -2 85 0 23 2 4 4 -43 4 -47 0 -66 -2 -42 -4z"/>
<path d="M1055 3010 c-4 -7 45 -9 142 -8 128 1 138 2 73 8 -115 11 -208 11
-215 0z"/>
<path d="M4763 2985 c-3 -9 -3 -18 0 -21 9 -9 27 6 27 22 0 19 -19 18 -27 -1z"/>
<path d="M6252 2975 c-16 -34 -15 -35 6 -35 26 0 30 6 24 35 -6 32 -16 32 -30
0z"/>
<path d="M5948 2943 c12 -2 30 -2 40 0 9 3 -1 5 -23 4 -22 0 -30 -2 -17 -4z"/>
<path d="M3560 2701 c-14 -28 -13 -116 3 -129 16 -14 99 -3 94 12 -2 6 -16 12
-30 14 -35 4 -36 32 -1 32 31 0 28 22 -5 30 -34 8 -30 25 7 28 20 2 32 9 32
18 0 23 -87 19 -100 -5z"/>
<path d="M3817 2707 c-27 -19 -19 -69 11 -77 31 -7 29 -24 -3 -28 -34 -4 -32
-29 3 -37 42 -9 82 10 82 38 0 13 -4 27 -9 33 -5 5 -11 25 -13 44 -2 29 -7 36
-28 38 -14 2 -33 -3 -43 -11z m44 -30 c-1 -12 -15 -9 -19 4 -3 6 1 10 8 8 6
-3 11 -8 11 -12z"/>
<path d="M4035 2711 c-3 -6 4 -15 15 -21 16 -9 20 -21 20 -66 0 -47 3 -55 18
-52 13 2 18 15 20 56 3 46 6 54 28 62 14 6 22 14 19 20 -8 13 -112 13 -120 1z"/>
<path d="M4625 2700 c-17 -19 -17 -21 -2 -38 10 -10 17 -35 17 -55 0 -26 4
-37 15 -37 16 0 16 2 19 65 2 44 -9 85 -22 85 -5 0 -17 -9 -27 -20z"/>
<path d="M4842 2695 c-23 -24 -24 -65 -1 -65 6 0 8 -12 4 -29 -7 -32 8 -43 47
-34 39 10 48 23 48 73 0 76 -51 105 -98 55z m59 -18 c-1 -4 -1 -15 -1 -24 0
-16 -1 -16 -16 -1 -9 9 -13 21 -9 28 7 12 27 10 26 -3z"/>
<path d="M5082 2708 c3 -7 13 -15 24 -16 10 -2 22 -7 27 -11 8 -8 -18 -67 -34
-76 -14 -9 -11 -35 4 -35 25 0 82 94 75 126 -2 15 -14 20 -52 22 -36 2 -47 0
-44 -10z"/>
<path d="M5335 2707 c-3 -7 -7 -27 -8 -43 -2 -26 1 -29 31 -32 17 -2 32 -9 32
-16 0 -20 -11 -26 -30 -16 -12 7 -21 6 -29 -4 -16 -19 -3 -26 45 -26 36 0 43
3 48 25 8 33 -8 63 -36 67 -28 4 -27 21 2 28 35 8 28 25 -13 28 -25 2 -39 -1
-42 -11z"/>
<path d="M4282 2584 c4 -21 22 -23 26 -1 2 10 -3 17 -13 17 -10 0 -15 -6 -13
-16z"/>
</g>
</svg>
